<svg xmlns="http://www.w3.org/2000/svg" width="59.137" height="65.24" viewBox="0 0 59.137 65.24"><g id="Group_28" data-name="Group 28" transform="translate(0 0)"><path id="Path_22" data-name="Path 22" d="M250.6,245.162c.967,0,1.823-.008,2.679,0a8.254,8.254,0,0,1,8.262,6.681c1.872,8.822,3.742,17.645,5.5,26.49a8.31,8.31,0,0,1-7.888,9.966c-.194.011-.39.015-.584.015q-20.986,0-41.973,0a8.25,8.25,0,0,1-8.469-7.319,14.13,14.13,0,0,1,.4-4.371q2.441-12.329,4.991-24.636a8.339,8.339,0,0,1,8.331-6.822c.855-.009,1.709,0,2.7,0a15.026,15.026,0,0,1-.809-12.7,14.4,14.4,0,0,1,5.787-7.05,14.931,14.931,0,0,1,17.407.986,15.138,15.138,0,0,1,3.67,18.76m-12.963,40.811c6.994,0,13.988.018,20.982-.007a6.1,6.1,0,0,0,6.2-7.264c-1.779-8.811-3.634-17.607-5.492-26.4a5.759,5.759,0,0,0-5-4.625,52.336,52.336,0,0,0-5.339-.126c-.656-.007-1.308.015-1.666-.678-.346-.671.066-1.164.424-1.669a12.238,12.238,0,0,0,2.277-8.758,12.479,12.479,0,0,0-23.417-4.414,12.1,12.1,0,0,0,.891,13.18c.37.541.778,1.041.4,1.743-.366.675-1,.591-1.616.591-1.393,0-2.786-.009-4.18,0a6.132,6.132,0,0,0-6.218,5.109c-1.659,7.955-3.342,15.905-4.966,23.867a14.093,14.093,0,0,0-.45,4.362,5.941,5.941,0,0,0,6.19,5.085q10.491.02,20.982,0" transform="translate(-208.075 -223.077)"></path><path id="Path_23" data-name="Path 23" d="M251.851,251.238a9.485,9.485,0,1,1,9.589-9.358,9.509,9.509,0,0,1-9.589,9.358m.121-2.347a7.141,7.141,0,1,0-7.206-7.142,7.166,7.166,0,0,0,7.206,7.142" transform="translate(-222.389 -226.907)"></path><path id="Path_24" data-name="Path 24" d="M261.107,293c0-1.254-.015-2.508,0-3.761a3.578,3.578,0,0,1,3.767-3.794c2.256-.026,4.513-.012,6.769,0,1.008,0,1.584.461,1.581,1.216s-.581,1.209-1.585,1.212c-2.2.006-4.4,0-6.6,0-1.212,0-1.585.375-1.589,1.611q-.013,3.594,0,7.189c0,1.231.381,1.6,1.592,1.609,1.476.006,2.953.01,4.429,0a1.242,1.242,0,0,0,1.424-1.36c.124-2.392-.12-2.65-2.5-2.652a8,8,0,0,1-1.085-.023,1.1,1.1,0,0,1-1.031-1.206,1.054,1.054,0,0,1,1.022-1.123,19.621,19.621,0,0,1,3,.031,3.188,3.188,0,0,1,2.32,1.486,5.855,5.855,0,0,1-.083,5.58,3.409,3.409,0,0,1-2.856,1.472c-1.644.008-3.287.027-4.931,0a3.522,3.522,0,0,1-3.645-3.64c-.033-1.281-.006-2.564-.006-3.845" transform="translate(-230.17 -249.059)"></path><path id="Path_25" data-name="Path 25" d="M242.376,293.022c1.655,1.863,3.262,3.676,4.873,5.485.423.474.576,1.062.141,1.5a2.113,2.113,0,0,1-1.319.407c-.226.01-.5-.318-.7-.54-1.343-1.49-2.743-2.936-3.982-4.509a3.064,3.064,0,0,0-3.425-1.1c0,.875,0,1.782,0,2.69,0,.808.031,1.619-.029,2.422a1.1,1.1,0,0,1-1.21,1.116,1.152,1.152,0,0,1-1.182-1.161,3.986,3.986,0,0,1-.01-.5v-11.7c0-.083,0-.167,0-.251.036-.868.506-1.406,1.224-1.4s1.186.542,1.2,1.423c.021,1.31.006,2.62.007,3.929v.906c1.388.221,2.48.121,3.4-1.076,1.22-1.586,2.637-3.02,3.977-4.512.645-.717,1.352-.839,1.879-.349a1.311,1.311,0,0,1-.12,1.927c-1.55,1.752-3.112,3.493-4.727,5.3" transform="translate(-219.517 -249.077)"></path></g></svg>