<svg xmlns="http://www.w3.org/2000/svg" width="78.162" height="62.67" viewBox="0 0 78.162 62.67"><g id="Group_24" data-name="Group 24" transform="translate(0)"><path id="Path_18" data-name="Path 18" d="M38.31,299.246c.181-.933.326-1.877.549-2.8,2.659-10.989,13.614-16.3,22.329-10.832.286.18.571.362.845.536,8.208-9.731,21.875-9.75,30.147-.641a15.4,15.4,0,0,1,7.061-3.035c8.078-1.3,16.246,5.9,17.068,15.206.212,2.4.167,4.845.142,7.268a3.473,3.473,0,0,1-2.763,3.446,6.651,6.651,0,0,1-1.065.069q-6.488.006-12.975,0h-.979c-.018.307-.043.558-.046.809-.04,3.073-1.735,5-4.433,5.011-3.409.012-6.818,0-10.228,0H60.988c-2.944,0-4.375-1.358-4.9-4.715h-.808c-4.274,0-8.549-.058-12.822.026a3.823,3.823,0,0,1-4.152-2.986ZM77.4,311.365q8.432,0,16.865,0c1.239,0,1.82-.658,1.846-2.085.016-.9-.013-1.809-.006-2.713a37.266,37.266,0,0,0-.631-9.139C92.607,285.6,81.8,278.924,71.613,282.7c-7.333,2.716-12.4,10.138-12.87,18.969-.129,2.446-.053,4.905-.07,7.358-.013,1.7.537,2.34,2.009,2.341q8.357,0,16.713,0m21.217-5.8h3.629q5.3,0,10.607,0c.563,0,1.083-.113,1.081-.889a53.038,53.038,0,0,0-.145-6.826c-1.145-8.535-8.066-13.975-15.435-12.27A10.707,10.707,0,0,0,93.9,287.73a26.3,26.3,0,0,1,3.862,8.38,33.7,33.7,0,0,1,.846,9.459M56.23,306.6c-.459-6.65.605-12.771,4.152-18.129-.207-.151-.33-.252-.461-.337-7.222-4.641-16.816.1-18.651,9.385a50.017,50.017,0,0,0-.426,7.755c-.044,1.184.157,1.367,1.2,1.367q6.678,0,13.357,0c.224,0,.449-.022.834-.042" transform="translate(-38.31 -251.623)"></path><path id="Path_19" data-name="Path 19" d="M102.419,259.155a13.271,13.271,0,1,1,13.35-13.3,13.328,13.328,0,0,1-13.35,13.3m.02-23.617a10.359,10.359,0,1,0,10.447,10.4,10.468,10.468,0,0,0-10.447-10.4" transform="translate(-63.719 -232.614)"></path><path id="Path_20" data-name="Path 20" d="M159.839,257.887a10.42,10.42,0,1,1-10.316-10.421,10.419,10.419,0,0,1,10.316,10.421m-10.41-7.5a7.408,7.408,0,1,0,7.525,7.407,7.434,7.434,0,0,0-7.525-7.407" transform="translate(-89.033 -238.375)"></path><path id="Path_21" data-name="Path 21" d="M60.765,248.628a10.333,10.333,0,1,1-10.433,10.308,10.445,10.445,0,0,1,10.433-10.308m-.031,17.738a7.406,7.406,0,1,0-7.518-7.414,7.431,7.431,0,0,0,7.518,7.414" transform="translate(-42.974 -239.078)"></path></g></svg>