<svg xmlns="http://www.w3.org/2000/svg" id="Group_38" data-name="Group 38" width="54.055" height="53.154" viewBox="0 0 54.055 53.154"><path id="Ellipse_7" data-name="Ellipse 7" d="M27.027,2a25.262,25.262,0,0,0-9.752,1.935A24.976,24.976,0,0,0,9.318,9.21a24.478,24.478,0,0,0-5.357,7.812,24.255,24.255,0,0,0,0,19.109,24.478,24.478,0,0,0,5.357,7.812,24.976,24.976,0,0,0,7.957,5.275,25.54,25.54,0,0,0,19.5,0,24.976,24.976,0,0,0,7.957-5.275,24.478,24.478,0,0,0,5.357-7.812,24.255,24.255,0,0,0,0-19.109A24.478,24.478,0,0,0,44.736,9.21,24.976,24.976,0,0,0,36.78,3.935,25.262,25.262,0,0,0,27.027,2m0-2A26.8,26.8,0,0,1,54.055,26.577,26.8,26.8,0,0,1,27.027,53.154,26.8,26.8,0,0,1,0,26.577,26.8,26.8,0,0,1,27.027,0Z"></path><path id="Ellipse_8" data-name="Ellipse 8" d="M5.856,2A3.856,3.856,0,1,0,9.712,5.856,3.86,3.86,0,0,0,5.856,2m0-2A5.856,5.856,0,1,1,0,5.856,5.856,5.856,0,0,1,5.856,0Z" transform="translate(20.721 20.721)"></path><path id="Ellipse_9" data-name="Ellipse 9" d="M5.856,2A3.856,3.856,0,1,0,9.712,5.856,3.86,3.86,0,0,0,5.856,2m0-2A5.856,5.856,0,1,1,0,5.856,5.856,5.856,0,0,1,5.856,0Z" transform="translate(29.73 11.712)"></path><path id="Ellipse_11" data-name="Ellipse 11" d="M5.856,2A3.856,3.856,0,1,0,9.712,5.856,3.86,3.86,0,0,0,5.856,2m0-2A5.856,5.856,0,1,1,0,5.856,5.856,5.856,0,0,1,5.856,0Z" transform="translate(29.73 30.631)"></path><path id="Ellipse_10" data-name="Ellipse 10" d="M5.856,2A3.856,3.856,0,1,0,9.712,5.856,3.86,3.86,0,0,0,5.856,2m0-2A5.856,5.856,0,1,1,0,5.856,5.856,5.856,0,0,1,5.856,0Z" transform="translate(11.712 11.712)"></path><path id="Ellipse_12" data-name="Ellipse 12" d="M5.856,2A3.856,3.856,0,1,0,9.712,5.856,3.86,3.86,0,0,0,5.856,2m0-2A5.856,5.856,0,1,1,0,5.856,5.856,5.856,0,0,1,5.856,0Z" transform="translate(11.712 30.631)"></path></svg>