<svg xmlns="http://www.w3.org/2000/svg" id="Group_29" data-name="Group 29" width="61.646" height="61.586" viewBox="0 0 61.646 61.586"><g id="Group_19" data-name="Group 19"><path id="Path_26" data-name="Path 26" d="M465.1,214.855A24.7,24.7,0,1,1,440.38,239.5,24.716,24.716,0,0,1,465.1,214.855m-22.553,24.7a22.563,22.563,0,1,0,22.706-22.537,22.539,22.539,0,0,0-22.706,22.537" transform="translate(-428.203 -214.845)"></path><path id="Path_27" data-name="Path 27" d="M419.506,218.612c-.376.419-.738.853-1.133,1.254a1.109,1.109,0,0,1-1.65.112,1.122,1.122,0,0,1,.126-1.653q1.528-1.541,3.07-3.066a1.089,1.089,0,0,1,1.726,0q1.562,1.545,3.106,3.108a1.071,1.071,0,0,1,.086,1.608,1.1,1.1,0,0,1-1.613-.072c-.4-.38-.782-.771-1.175-1.154-.02-.02-.064-.015-.139-.03v41.773c.506-.5.933-.932,1.378-1.347a1.065,1.065,0,0,1,1.447-.108,1.052,1.052,0,0,1,.107,1.6q-1.645,1.694-3.341,3.338a1.02,1.02,0,0,1-1.446,0q-1.694-1.646-3.34-3.339a1.08,1.08,0,1,1,1.559-1.493c.444.42.869.859,1.4,1.383V218.74l-.165-.128" transform="translate(-416.406 -214.835)"></path><path id="Path_28" data-name="Path 28" d="M444.155,324.5c.413.383.839.754,1.237,1.151a1.116,1.116,0,0,1,.091,1.652,1.091,1.091,0,0,1-1.613-.111q-1.564-1.544-3.111-3.105a1.1,1.1,0,0,1-.005-1.692q1.563-1.583,3.15-3.144a1.083,1.083,0,1,1,1.53,1.522c-.421.418-.881.8-1.324,1.192l.129.162h41.844c-.517-.523-.958-.947-1.374-1.394a1.08,1.08,0,1,1,1.53-1.522q1.628,1.6,3.228,3.221a1.056,1.056,0,0,1,0,1.609q-1.58,1.6-3.187,3.183a1.071,1.071,0,0,1-1.572.081,1.082,1.082,0,0,1,.039-1.612c.407-.415.847-.8,1.272-1.2l-.072-.124h-41.7l-.1.126" transform="translate(-428.194 -266.025)"></path><path id="Path_29" data-name="Path 29" d="M485.359,239.888c-.395,0-.961.009-1.526,0a1.085,1.085,0,0,1-1.195-1.08,1.058,1.058,0,0,1,1.185-1.076q2.224-.011,4.448,0a1.029,1.029,0,0,1,1.163,1.143q.013,2.252,0,4.5a1.045,1.045,0,0,1-1.06,1.144,1.066,1.066,0,0,1-1.094-1.123c-.02-.6,0-1.191,0-1.8L467.2,261.756c.12,0,.345,0,.57,0,.421,0,.843-.014,1.262.018a1.058,1.058,0,0,1,1.012,1.088,1.022,1.022,0,0,1-1.009,1.03q-2.389.038-4.777.007a1,1,0,0,1-1.034-1.061q-.03-2.305,0-4.613a1.079,1.079,0,1,1,2.153.044c.01.583,0,1.166,0,1.672l19.984-20.054" transform="translate(-439.435 -226.098)"></path></g></svg>