<svg xmlns="http://www.w3.org/2000/svg" width="52.31" height="52.31" viewBox="0 0 52.31 52.31"><g id="Group_39" data-name="Group 39" transform="translate(-0.149)"><g id="Group_41" data-name="Group 41" transform="translate(0.149 0)"><path id="Ellipse_7" data-name="Ellipse 7" d="M26.155,2a24.162,24.162,0,0,0-9.4,46.412A24.162,24.162,0,0,0,35.556,3.9a24,24,0,0,0-9.4-1.9m0-2A26.155,26.155,0,1,1,0,26.155,26.155,26.155,0,0,1,26.155,0Z"></path><path id="Ellipse_10" data-name="Ellipse 10" d="M4.433,2A2.433,2.433,0,1,0,6.866,4.433,2.436,2.436,0,0,0,4.433,2m0-2A4.433,4.433,0,1,1,0,4.433,4.433,4.433,0,0,1,4.433,0Z" transform="translate(9.752 9.753)"></path><path id="Ellipse_10-2" data-name="Ellipse 10" d="M4.433,2A2.433,2.433,0,1,0,6.866,4.433,2.436,2.436,0,0,0,4.433,2m0-2A4.433,4.433,0,1,1,0,4.433,4.433,4.433,0,0,1,4.433,0Z" transform="translate(22.165 9.753)"></path><path id="Ellipse_10-3" data-name="Ellipse 10" d="M4.433,2A2.433,2.433,0,1,0,6.866,4.433,2.436,2.436,0,0,0,4.433,2m0-2A4.433,4.433,0,1,1,0,4.433,4.433,4.433,0,0,1,4.433,0Z" transform="translate(34.577 9.753)"></path><path id="Ellipse_10-4" data-name="Ellipse 10" d="M4.433,2A2.433,2.433,0,1,0,6.866,4.433,2.436,2.436,0,0,0,4.433,2m0-2A4.433,4.433,0,1,1,0,4.433,4.433,4.433,0,0,1,4.433,0Z" transform="translate(9.752 21.278)"></path><path id="Ellipse_10-5" data-name="Ellipse 10" d="M4.433,2A2.433,2.433,0,1,0,6.866,4.433,2.436,2.436,0,0,0,4.433,2m0-2A4.433,4.433,0,1,1,0,4.433,4.433,4.433,0,0,1,4.433,0Z" transform="translate(22.165 21.278)"></path><path id="Ellipse_10-6" data-name="Ellipse 10" d="M4.433,2A2.433,2.433,0,1,0,6.866,4.433,2.436,2.436,0,0,0,4.433,2m0-2A4.433,4.433,0,1,1,0,4.433,4.433,4.433,0,0,1,4.433,0Z" transform="translate(34.577 21.278)"></path><path id="Ellipse_10-7" data-name="Ellipse 10" d="M4.433,2A2.433,2.433,0,1,0,6.866,4.433,2.436,2.436,0,0,0,4.433,2m0-2A4.433,4.433,0,1,1,0,4.433,4.433,4.433,0,0,1,4.433,0Z" transform="translate(9.752 32.804)"></path><path id="Ellipse_10-8" data-name="Ellipse 10" d="M4.433,2A2.433,2.433,0,1,0,6.866,4.433,2.436,2.436,0,0,0,4.433,2m0-2A4.433,4.433,0,1,1,0,4.433,4.433,4.433,0,0,1,4.433,0Z" transform="translate(22.165 32.804)"></path><path id="Ellipse_10-9" data-name="Ellipse 10" d="M4.433,2A2.433,2.433,0,1,0,6.866,4.433,2.436,2.436,0,0,0,4.433,2m0-2A4.433,4.433,0,1,1,0,4.433,4.433,4.433,0,0,1,4.433,0Z" transform="translate(34.577 32.804)"></path></g></g></svg>