<svg xmlns="http://www.w3.org/2000/svg" width="52.084" height="59.606" viewBox="0 0 52.084 59.606"><g id="Group_20" data-name="Group 20" transform="translate(0)"><path id="Path_50" data-name="Path 50" d="M71.93,0a1.428,1.428,0,0,1,.532,1.265c-.017,2.229-.006,4.459-.01,6.689,0,.212.046.491-.066.621-.218.253-.532.582-.806.582s-.589-.329-.806-.582c-.112-.13-.065-.41-.065-.621,0-2.23.008-4.459-.01-6.689A1.425,1.425,0,0,1,71.232,0Z" transform="translate(-45.566)"></path><path id="Path_51" data-name="Path 51" d="M48.965,76.294a3.352,3.352,0,0,1-.976,3,2.674,2.674,0,0,1-1.821.65,2.365,2.365,0,0,1-2.182-1.218,13.919,13.919,0,0,1-.713-2.493,6.405,6.405,0,0,1-.737-.17,2.75,2.75,0,0,1-1.858-2.739q-.021-2.1,0-4.191a.678.678,0,0,0-.4-.726,2.7,2.7,0,0,1-1.467-2.642,13.359,13.359,0,0,0-.795-5.139,12.717,12.717,0,0,0-2.682-4.111,14.35,14.35,0,0,1-3.981-10.2A14.873,14.873,0,0,1,47.57,31.623a14.551,14.551,0,0,1,10.3,5.558c.525.644.545,1.16.077,1.519-.438.336-.932.191-1.426-.412A12.9,12.9,0,0,0,45.914,33.3,13.185,13.185,0,0,0,33.148,47.526a12.613,12.613,0,0,0,3.479,7.813,13.778,13.778,0,0,1,3.929,10.127c-.018,1.281.26,1.546,1.522,1.546q4.22,0,8.44,0c1.034,0,1.39-.328,1.365-1.353A14.58,14.58,0,0,1,55.917,55.2,12.72,12.72,0,0,0,58.573,41.98c-.03-.092-.07-.181-.1-.274A.869.869,0,0,1,59,40.565a.8.8,0,0,1,1.1.555,22.669,22.669,0,0,1,.877,3.659A14.614,14.614,0,0,1,56.9,56.764,11.875,11.875,0,0,0,53.634,65a12.206,12.206,0,0,1-.053,1.393,2.516,2.516,0,0,1-1.4,2.015.672.672,0,0,0-.418.717c.018,1.222.007,2.445.007,3.667,0,2.2-.633,3.008-2.8,3.506m-6.511-5.577c.7.081,1.62-.185,1.651.855.033,1.124-.961.847-1.673.962,0,.347-.027.674.006,1a.951.951,0,0,0,1,.936q2.79.025,5.58,0a.924.924,0,0,0,.975-.888A9.766,9.766,0,0,0,50,72.49H47.292a.892.892,0,0,1-.953-.608A.848.848,0,0,1,47.2,70.75c.92-.018,1.841,0,2.782,0V68.792H42.454Zm2.776,5.517c.038.683-.232,1.424.508,1.8a1.376,1.376,0,0,0,1.063-.062c.455-.218.543-.981.309-1.739Z" transform="translate(-20.206 -20.341)"></path><path id="Path_52" data-name="Path 52" d="M85.249,60.7c.406,0,.816-.033,1.219.006A3.258,3.258,0,0,1,89.308,62.8a5.264,5.264,0,0,1-.06,4.45,3.347,3.347,0,0,1-3,2.054c-.657.035-1.317.044-1.975.031-.681-.014-.985-.332-.989-1.017q-.015-3.255-.012-6.51c0-.858.284-1.13,1.162-1.139.271,0,.543,0,.814,0V60.7m-.207,6.826c1.454.193,2.211-.108,2.646-1.017a3.559,3.559,0,0,0-.4-3.618,2.235,2.235,0,0,0-2.248-.326Z" transform="translate(-53.669 -39.099)"></path><path id="Path_53" data-name="Path 53" d="M66.414,62.263v1.77c.552,0,1.106,0,1.659,0,.671.007,1.066.347,1.053.892-.012.522-.4.843-1.036.852-.54.007-1.08,0-1.662,0v1.776c.605,0,1.216-.006,1.827,0,.694.008,1.076.318,1.082.862s-.362.873-1.055.88c-.892.009-1.784.013-2.675,0a.858.858,0,0,1-.962-.975q-.012-3.4,0-6.8c0-.684.312-.986,1-.994q1.367-.014,2.733,0c.611.007.956.323.961.848a.867.867,0,0,1-.942.887c-.638.023-1.277.005-1.981.005" transform="translate(-41.66 -39.002)"></path><path id="Path_54" data-name="Path 54" d="M50.141,67.537c.577,0,1.058-.014,1.538,0a.871.871,0,1,1-.01,1.732c-.774.02-1.55.024-2.324,0a.852.852,0,0,1-.941-.949q-.025-3.458,0-6.915a.877.877,0,0,1,.909-.979c.5.02.823.379.826.993.01,1.8,0,3.6,0,5.4v.713" transform="translate(-31.189 -38.944)"></path><path id="Path_55" data-name="Path 55" d="M125.239,70.88c1.164,0,2.328,0,3.492,0,.7,0,1.09.315,1.106.846s-.4.893-1.116.895q-3.492.01-6.984,0c-.721,0-1.081-.3-1.095-.846-.015-.575.364-.89,1.1-.894,1.164-.007,2.328,0,3.492,0" transform="translate(-77.754 -45.681)"></path><path id="Path_56" data-name="Path 56" d="M4.569,72.622c-1.222,0-2.445.031-3.665-.022a1.2,1.2,0,0,1-.83-.485.952.952,0,0,1,.062-.843A.992.992,0,0,1,.862,70.9c2.463-.027,4.927-.025,7.39-.009a.862.862,0,1,1-.017,1.722c-1.222.022-2.444.007-3.666.007v0" transform="translate(0 -45.682)"></path><path id="Path_57" data-name="Path 57" d="M19.319,51.08c-1.467-.65-2.834-1.218-4.159-1.87-.338-.166-.349-.632-.142-.994A.777.777,0,0,1,16,47.8q1.835.709,3.635,1.508a.707.707,0,0,1,.4.969,3.841,3.841,0,0,1-.716.8" transform="translate(-9.591 -30.775)"></path><path id="Path_58" data-name="Path 58" d="M122,48.812c-.106.133-.251.481-.5.6-1.156.531-2.337,1.012-3.521,1.479a.822.822,0,0,1-1.1-.475.809.809,0,0,1,.439-1.111c1.166-.511,2.34-1.007,3.528-1.464.562-.216,1.133.215,1.157.974" transform="translate(-75.279 -30.796)"></path><path id="Path_59" data-name="Path 59" d="M15.92,93.136c-.4-.021-.774-.22-.8-.646-.018-.311.129-.819.352-.926,1.2-.575,2.434-1.075,3.676-1.551a.77.77,0,0,1,1.007.461.74.74,0,0,1-.3,1.058c-1.244.569-2.521,1.066-3.785,1.589a.643.643,0,0,1-.151.015" transform="translate(-9.744 -57.977)"></path><path id="Path_60" data-name="Path 60" d="M121.183,93.272c-1.457-.64-2.809-1.2-4.123-1.835a.7.7,0,0,1-.182-.989.762.762,0,0,1,.967-.442c1.259.483,2.513.99,3.728,1.573a1.051,1.051,0,0,1,.31.929c-.061.28-.435.493-.7.765" transform="translate(-75.252 -57.976)"></path><path id="Path_61" data-name="Path 61" d="M90.849,20.288c-.755-.022-1.19-.587-.974-1.153.461-1.207.962-2.4,1.492-3.578a.763.763,0,0,1,1.076-.389.776.776,0,0,1,.5,1.037c-.46,1.208-.955,2.4-1.491,3.579-.115.252-.464.4-.6.505" transform="translate(-57.889 -9.72)"></path><path id="Path_62" data-name="Path 62" d="M50.867,19.507a3.489,3.489,0,0,1-.729.691.7.7,0,0,1-.978-.371Q48.346,18,47.633,16.138a.762.762,0,0,1,.449-.963.714.714,0,0,1,1.027.22c.593,1.293,1.1,2.625,1.643,3.942a.164.164,0,0,1,0,.058l.114.113" transform="translate(-30.668 -9.703)"></path><path id="Path_63" data-name="Path 63" d="M32.518,106.948a4.582,4.582,0,0,1-.47.755q-1.215,1.254-2.468,2.471a.871.871,0,1,1-1.244-1.206c.84-.861,1.7-1.707,2.55-2.554a.756.756,0,0,1,1-.189,3.787,3.787,0,0,1,.633.723" transform="translate(-18.056 -68.385)"></path><path id="Path_64" data-name="Path 64" d="M106.992,105.82a4.882,4.882,0,0,1,.751.481c.823.8,1.631,1.607,2.434,2.423.459.466.489.95.114,1.333a.869.869,0,0,1-1.333-.091c-.844-.83-1.7-1.647-2.492-2.528a1.215,1.215,0,0,1-.178-.985c.068-.246.439-.409.7-.632" transform="translate(-68.48 -68.201)"></path><path id="Path_65" data-name="Path 65" d="M32.439,31.728c-.164.214-.3.555-.534.653a1.037,1.037,0,0,1-.9-.048c-.986-.9-1.931-1.853-2.847-2.827a.852.852,0,0,1,1.2-1.184c.972.919,1.905,1.879,2.84,2.837a2.066,2.066,0,0,1,.246.569" transform="translate(-18.017 -18.122)"></path><path id="Path_66" data-name="Path 66" d="M110.476,29.128a3.648,3.648,0,0,1-.411.724q-1.255,1.3-2.549,2.554a.847.847,0,0,1-1.289.034.835.835,0,0,1,.054-1.246c.852-.876,1.7-1.757,2.605-2.578a1.135,1.135,0,0,1,.936-.171c.254.076.425.429.653.683" transform="translate(-68.3 -18.31)"></path></g></svg>