<svg xmlns="http://www.w3.org/2000/svg" width="47.345" height="58.821" viewBox="0 0 47.345 58.821"><g id="Group_30" data-name="Group 30" transform="translate(0)"><path id="Path_30" data-name="Path 30" d="M622.061,219.307c-.814,5.785-.392,11.05,3.034,15.81l5.778-4.12.416.248c-.457,5.11,2.3,9.244,3.923,13.727,2.217,6.128,3.381,12.434,1.666,18.848-1.849,6.912-6.514,11.429-13.468,14.308.42-.663.614-.984.822-1.3.822-1.232,1.677-2.444,2.469-3.7,2.7-4.262,2.348-8.516-.057-12.769-1.843-3.259-3.651-6.537-5.537-9.919-1.911,1.919-2.056,4.643-2.357,7.784-5.366-6.929-4.4-14.328-3.109-21.787-4.748,1.558-11.476,11.674-12.3,19.032-.9,8.07,1.484,15.454,5.833,22.616a30.941,30.941,0,0,1-10.45-4.85c-8.3-5.931-10.343-14.009-6.494-25.018,2.382-6.813,6.864-12.237,12.123-17.051a77.891,77.891,0,0,1,16.574-11.409c.271-.142.569-.232,1.135-.458" transform="translate(-590.355 -219.307)"></path></g></svg>